<svg width="200" height="200" viewBox="0 0 200 200" xmlns="http://www.w3.org/2000/svg">
  <!-- Fondo circular -->
  <defs>
    <linearGradient id="bg5" x1="0%" y1="0%" x2="100%" y2="100%">
      <stop offset="0%" style="stop-color:#e74c3c;stop-opacity:1" />
      <stop offset="100%" style="stop-color:#f39c12;stop-opacity:1" />
    </linearGradient>
  </defs>
  
  <circle cx="100" cy="100" r="100" fill="url(#bg5)"/>
  
  <!-- Cara -->
  <circle cx="100" cy="85" r="35" fill="#fdbcb4"/>
  
  <!-- Cabello -->
  <path d="M 70 55 Q 100 40 130 55 Q 130 70 100 75 Q 70 70 70 55" fill="#2c3e50"/>
  
  <!-- Ojos -->
  <circle cx="90" cy="80" r="3" fill="#2c3e50"/>
  <circle cx="110" cy="80" r="3" fill="#2c3e50"/>
  
  <!-- Gafas -->
  <circle cx="90" cy="80" r="8" fill="none" stroke="#34495e" stroke-width="2"/>
  <circle cx="110" cy="80" r="8" fill="none" stroke="#34495e" stroke-width="2"/>
  <line x1="98" y1="80" x2="102" y2="80" stroke="#34495e" stroke-width="2"/>
  
  <!-- Nariz -->
  <circle cx="100" cy="88" r="1.5" fill="#e67e22"/>
  
  <!-- Boca -->
  <path d="M 95 95 Q 100 100 105 95" stroke="#e74c3c" stroke-width="2" fill="none"/>
  
  <!-- Cuerpo -->
  <rect x="80" y="120" width="40" height="50" rx="5" fill="#e67e22"/>
  
  <!-- Brazos -->
  <rect x="65" y="125" width="15" height="30" rx="7" fill="#fdbcb4"/>
  <rect x="120" y="125" width="15" height="30" rx="7" fill="#fdbcb4"/>
</svg>